<?xml version="1.0" ?><svg enable-background="new 0 0 32 32" id="Glyph" version="1.1" viewBox="0 0 32 32" xml:space="preserve" xmlns="http://www.w3.org/2000/svg" xmlns:xlink="http://www.w3.org/1999/xlink"><path d="M24.972,12.288C24.608,7.657,20.723,4,16,4c-4.04,0-7.508,2.624-8.627,6.451C4.181,11.559,2,14.583,2,18  c0,4.411,3.589,8,8,8h13c3.86,0,7-3.14,7-7C30,15.851,27.93,13.148,24.972,12.288z M20.924,15.383C20.769,15.756,20.404,16,20,16h-2  v4c0,1.104-0.896,2-2,2s-2-0.896-2-2v-4h-2c-0.404,0-0.769-0.244-0.924-0.617c-0.155-0.374-0.069-0.804,0.217-1.09l4-4  C15.488,10.098,15.744,10,16,10s0.512,0.098,0.707,0.293l4,4C20.993,14.579,21.079,15.009,20.924,15.383z" id="XMLID_270_"/></svg>